<?xml version="1.0" standalone="no"?>
<!DOCTYPE svg PUBLIC "-//W3C//DTD SVG 20010904//EN"
 "http://www.w3.org/TR/2001/REC-SVG-20010904/DTD/svg10.dtd">
<svg version="1.0" xmlns="http://www.w3.org/2000/svg"
 width="1238.000000pt" height="1240.000000pt" viewBox="0 0 1238.000000 1240.000000"
 preserveAspectRatio="xMidYMid meet">
<metadata>
Created by potrace 1.15, written by Peter Selinger 2001-2017
</metadata>
<g transform="translate(0.000000,1240.000000) scale(0.100000,-0.100000)"
fill="#000000" stroke="none">
<path d="M6158 11925 c-1 -2 -88 -6 -193 -9 -189 -5 -525 -36 -599 -55 -21 -5
-44 -7 -50 -5 -6 2 -34 -1 -61 -7 -28 -6 -72 -14 -100 -18 -27 -5 -75 -14
-105 -21 -30 -6 -64 -13 -75 -15 -82 -14 -261 -58 -310 -76 -33 -12 -80 -25
-105 -30 -74 -13 -429 -138 -640 -226 -19 -8 -44 -18 -55 -23 -67 -28 -118
-52 -275 -129 -189 -94 -433 -229 -438 -243 -2 -4 -8 -8 -13 -8 -6 0 -37 -18
-69 -40 -32 -22 -63 -40 -69 -40 -5 0 -11 -4 -13 -9 -1 -4 -34 -29 -73 -54
-74 -49 -142 -97 -196 -137 -134 -101 -178 -135 -283 -224 -320 -268 -565
-521 -849 -873 -37 -46 -74 -95 -84 -110 -10 -16 -21 -30 -24 -33 -4 -3 -24
-30 -45 -60 -20 -30 -40 -57 -43 -60 -4 -3 -47 -67 -96 -143 -50 -76 -105
-160 -122 -187 -18 -27 -33 -52 -33 -56 0 -3 -8 -18 -18 -32 -62 -90 -276
-522 -347 -702 -20 -52 -41 -104 -46 -115 -46 -111 -119 -324 -119 -349 0 -6
-6 -23 -14 -37 -7 -15 -19 -51 -26 -80 -7 -30 -21 -79 -31 -109 -23 -70 -49
-171 -60 -235 -5 -27 -13 -70 -19 -95 -46 -214 -82 -447 -106 -690 -23 -218
-22 -823 0 -1055 16 -167 20 -193 52 -385 9 -52 20 -124 25 -160 4 -36 12 -81
18 -100 5 -19 14 -60 21 -90 24 -119 44 -198 65 -265 12 -38 28 -94 35 -124 7
-29 19 -65 26 -80 8 -14 14 -32 14 -39 0 -20 83 -260 120 -347 5 -11 27 -65
48 -120 126 -318 331 -697 558 -1031 294 -435 576 -754 1009 -1143 33 -30 171
-144 235 -194 8 -7 36 -29 61 -50 25 -20 51 -37 56 -37 6 0 16 -7 23 -15 19
-23 370 -265 384 -265 3 0 41 -22 85 -50 177 -110 569 -313 696 -360 21 -8 95
-37 130 -50 11 -5 58 -23 105 -40 47 -18 99 -39 115 -46 17 -7 48 -18 70 -24
22 -7 47 -16 56 -21 9 -4 34 -11 55 -15 22 -3 44 -10 49 -14 6 -5 28 -11 50
-15 22 -4 45 -11 50 -15 6 -4 24 -10 40 -13 35 -6 132 -32 195 -53 25 -8 59
-14 75 -14 17 0 35 -4 40 -9 6 -5 28 -11 50 -14 22 -3 60 -10 84 -16 24 -7 64
-14 90 -17 25 -2 136 -18 246 -34 277 -41 405 -52 660 -56 121 -2 222 -4 225
-5 3 -1 8 -1 12 0 4 0 65 3 135 6 180 7 382 23 493 40 52 8 133 19 180 26 47
7 130 21 185 31 55 11 117 22 138 25 20 3 40 9 43 14 3 5 21 9 40 9 34 0 59 6
204 50 36 11 88 25 115 31 28 5 88 24 135 40 47 17 105 36 130 43 25 7 86 29
135 49 50 19 124 47 165 62 94 34 120 46 250 107 133 63 275 135 315 159 16
10 44 25 62 33 17 8 56 30 87 50 31 20 59 36 63 36 4 0 36 19 72 42 161 103
296 192 301 197 3 4 28 21 57 39 28 18 57 40 65 49 7 9 30 27 51 40 46 29 213
164 302 243 34 30 81 72 106 93 70 61 314 304 392 391 40 44 87 96 105 115 47
51 214 259 290 360 108 145 358 531 395 611 4 8 19 35 33 60 29 50 183 355
207 410 127 289 300 785 331 947 3 11 9 38 16 59 6 22 15 62 20 89 6 28 17 79
25 115 9 36 20 92 25 125 13 90 38 259 55 360 19 121 24 190 34 460 10 243 -1
677 -19 825 -18 138 -28 209 -44 310 -8 52 -19 122 -25 155 -5 33 -14 80 -19
105 -6 25 -16 72 -22 105 -6 33 -18 82 -26 109 -8 26 -14 56 -14 65 0 9 -11
50 -24 91 -31 96 -79 252 -82 265 -7 35 -61 189 -80 232 -13 28 -24 56 -24 62
0 5 -11 37 -25 70 -14 34 -36 87 -49 119 -136 330 -404 813 -609 1095 -160
221 -245 327 -386 486 -298 336 -610 623 -941 865 -25 18 -72 53 -105 77 -70
52 -408 269 -419 269 -5 0 -20 8 -34 18 -82 57 -487 258 -647 322 -11 4 -43
17 -71 28 -28 12 -73 29 -100 38 -27 9 -67 25 -89 35 -22 10 -60 23 -85 29
-25 7 -58 17 -75 24 -34 14 -162 55 -275 86 -41 12 -87 26 -101 31 -14 6 -30
9 -35 8 -15 -3 -74 13 -74 21 0 3 -15 7 -32 7 -18 0 -76 10 -128 22 -52 13
-115 25 -140 27 -25 3 -54 9 -65 15 -11 5 -45 11 -75 14 -107 8 -166 15 -220
25 -30 6 -89 12 -130 15 -41 3 -97 8 -125 11 -27 3 -95 7 -150 10 -55 2 -148
6 -207 8 -58 3 -108 3 -110 1z m401 -365 c13 0 30 -5 36 -10 7 -6 37 -10 66
-10 30 0 63 0 74 0 11 -1 33 -1 49 -1 16 0 36 -5 43 -11 8 -6 47 -11 91 -10
51 0 84 -4 99 -13 14 -9 33 -12 52 -9 19 4 37 2 46 -6 8 -7 44 -13 80 -15 35
-1 71 -8 80 -15 8 -7 25 -10 39 -6 23 6 45 -1 123 -37 12 -5 35 -7 51 -4 18 4
37 1 48 -8 11 -8 31 -15 46 -15 15 0 31 -7 36 -16 7 -13 13 -14 30 -5 15 8 27
7 49 -4 15 -8 36 -15 46 -15 9 0 25 -4 35 -9 9 -5 51 -19 92 -32 41 -12 79
-26 84 -31 6 -4 19 -8 31 -8 11 0 31 -7 43 -16 13 -9 29 -13 37 -10 7 2 19 -2
26 -10 7 -8 19 -12 27 -9 8 3 22 -1 31 -8 9 -8 28 -17 44 -21 15 -3 39 -9 55
-12 15 -4 35 -14 45 -22 22 -19 84 -42 115 -42 12 0 22 -4 22 -10 0 -5 11 -10
23 -10 13 0 32 -9 42 -20 10 -11 27 -20 37 -20 11 0 31 -9 45 -20 14 -11 34
-20 45 -20 10 0 30 -11 43 -24 14 -14 32 -22 42 -20 11 3 28 -5 42 -20 14 -14
34 -26 46 -26 12 0 30 -9 40 -20 10 -11 30 -20 44 -20 14 0 36 -11 49 -24 14
-15 29 -22 41 -19 13 3 26 -5 42 -26 14 -19 32 -31 46 -31 13 0 40 -16 62 -35
21 -19 47 -35 58 -35 10 0 37 -18 58 -40 25 -25 48 -40 64 -40 16 0 39 -16 68
-46 31 -32 50 -44 63 -41 14 3 34 -11 71 -50 35 -37 57 -53 70 -50 12 3 41
-19 94 -74 46 -47 84 -78 94 -76 24 3 839 -799 848 -833 3 -14 39 -59 79 -101
42 -44 74 -85 74 -97 0 -11 23 -42 51 -69 31 -30 51 -59 53 -75 2 -15 18 -39
38 -57 20 -17 38 -44 41 -60 3 -15 24 -46 46 -67 29 -26 41 -47 41 -65 0 -19
9 -34 30 -49 20 -14 30 -30 30 -46 0 -15 12 -36 30 -52 16 -15 33 -42 36 -61
4 -18 13 -35 20 -38 8 -3 14 -14 14 -26 0 -11 11 -35 25 -53 14 -18 25 -40 25
-49 0 -10 11 -30 25 -47 14 -16 25 -38 25 -49 0 -11 7 -22 15 -25 8 -4 15 -15
15 -27 0 -11 11 -35 25 -53 14 -18 25 -41 25 -52 0 -10 9 -27 20 -37 11 -10
20 -24 20 -32 0 -24 51 -167 65 -183 7 -8 19 -35 26 -60 7 -25 16 -49 21 -54
4 -6 8 -18 8 -28 0 -9 7 -34 16 -55 24 -54 30 -72 44 -123 7 -25 16 -54 21
-65 4 -11 20 -56 34 -100 14 -44 30 -89 35 -100 5 -11 9 -29 8 -40 -1 -11 9
-48 21 -83 12 -34 20 -70 17 -80 -4 -11 5 -44 19 -76 14 -31 25 -74 25 -96 0
-21 5 -42 10 -45 6 -3 10 -35 10 -70 0 -35 5 -67 10 -70 6 -3 10 -24 10 -46 0
-22 5 -49 11 -60 5 -11 10 -56 11 -99 0 -44 4 -83 9 -86 5 -3 9 -53 9 -112 1
-78 5 -112 15 -126 23 -31 22 -761 -1 -794 -13 -19 -14 -38 -9 -106 5 -63 4
-90 -7 -112 -10 -19 -14 -52 -11 -97 1 -38 -1 -77 -7 -86 -5 -10 -11 -39 -15
-66 -3 -27 -10 -53 -14 -59 -5 -6 -9 -37 -9 -69 0 -32 -4 -63 -11 -70 -6 -6
-11 -28 -11 -49 0 -20 -9 -62 -21 -93 -12 -31 -19 -66 -16 -77 3 -11 2 -28 -3
-37 -21 -36 -40 -95 -40 -121 0 -35 -192 -615 -212 -638 -7 -9 -26 -56 -41
-104 -15 -47 -34 -91 -42 -98 -8 -7 -17 -27 -21 -45 -3 -19 -12 -36 -20 -39
-8 -3 -14 -16 -14 -29 0 -13 -9 -32 -19 -41 -11 -10 -23 -31 -26 -46 -3 -15
-15 -36 -26 -46 -10 -9 -19 -29 -19 -43 0 -15 -9 -34 -20 -44 -11 -9 -20 -25
-20 -36 0 -10 -8 -29 -19 -42 -10 -13 -22 -35 -26 -49 -4 -14 -21 -40 -36 -58
-16 -18 -29 -41 -29 -51 0 -10 -10 -26 -21 -37 -12 -10 -29 -37 -39 -59 -10
-22 -32 -53 -49 -69 -17 -17 -31 -39 -31 -51 0 -12 -20 -40 -45 -65 -25 -24
-45 -54 -45 -65 0 -12 -22 -42 -50 -70 -28 -28 -50 -58 -50 -70 0 -12 -27 -47
-66 -85 -36 -36 -72 -81 -80 -100 -22 -52 -817 -840 -848 -840 -15 0 -45 -23
-91 -71 -41 -42 -79 -72 -95 -76 -16 -3 -47 -25 -71 -49 -24 -24 -52 -44 -64
-44 -11 0 -41 -20 -67 -45 -30 -28 -56 -45 -71 -45 -16 0 -38 -14 -61 -40 -22
-25 -45 -40 -59 -40 -13 0 -36 -13 -52 -30 -16 -16 -37 -30 -47 -30 -9 0 -33
-13 -51 -30 -19 -16 -44 -30 -55 -30 -12 0 -33 -11 -48 -25 -15 -14 -37 -25
-49 -25 -12 0 -30 -9 -40 -20 -10 -11 -27 -20 -37 -20 -11 0 -31 -9 -45 -20
-14 -11 -33 -20 -43 -20 -9 0 -26 -11 -39 -24 -15 -15 -29 -22 -45 -19 -17 4
-27 -1 -35 -16 -7 -13 -22 -21 -37 -21 -15 0 -39 -11 -56 -25 -16 -14 -38 -25
-48 -25 -10 0 -22 -5 -25 -10 -3 -6 -17 -10 -30 -10 -13 0 -27 -5 -30 -10 -4
-6 -15 -8 -26 -5 -13 4 -26 -2 -43 -19 -13 -14 -29 -26 -36 -26 -17 0 -78 -19
-103 -32 -10 -5 -27 -6 -38 -3 -12 4 -21 1 -25 -9 -3 -9 -17 -16 -29 -16 -13
0 -27 -4 -30 -10 -3 -5 -17 -10 -31 -10 -13 0 -32 -4 -42 -9 -49 -25 -94 -41
-102 -36 -5 3 -11 1 -15 -5 -3 -5 -15 -10 -26 -10 -10 0 -27 -4 -37 -9 -30
-15 -87 -31 -112 -31 -28 0 -84 -17 -122 -37 -15 -7 -37 -11 -50 -8 -13 3 -47
-4 -78 -16 -30 -12 -71 -23 -90 -23 -19 -1 -41 -5 -48 -10 -7 -4 -41 -9 -75
-10 -34 -1 -72 -7 -84 -14 -12 -7 -40 -12 -62 -12 -23 0 -41 -4 -41 -9 0 -5
-37 -8 -82 -6 -46 1 -87 -1 -93 -5 -16 -12 -83 -29 -90 -22 -11 12 -119 9
-150 -3 -42 -16 -771 -14 -801 3 -14 7 -56 10 -110 9 -62 -2 -98 1 -118 11
-17 8 -45 12 -65 9 -20 -2 -59 0 -86 5 -28 5 -70 11 -95 14 -24 2 -51 10 -58
18 -11 11 -20 12 -38 4 -17 -8 -27 -8 -39 2 -12 10 -18 10 -30 0 -11 -10 -18
-9 -30 4 -9 9 -31 16 -48 16 -18 0 -57 9 -87 20 -30 11 -73 20 -96 20 -25 0
-47 6 -54 15 -7 9 -21 13 -31 10 -12 -4 -21 -1 -25 8 -3 9 -21 14 -50 15 -25
0 -51 6 -59 12 -8 7 -21 10 -29 7 -8 -3 -20 1 -27 9 -7 8 -19 12 -27 9 -8 -3
-20 -1 -26 3 -6 5 -36 17 -66 27 -30 9 -63 21 -72 26 -10 5 -27 9 -37 9 -11 0
-23 5 -27 11 -3 6 -15 9 -25 6 -10 -3 -23 1 -30 9 -6 8 -21 14 -33 14 -12 0
-31 7 -43 15 -12 8 -28 12 -37 9 -10 -4 -18 0 -22 10 -4 10 -13 14 -28 10 -15
-3 -29 3 -45 20 -13 13 -29 22 -35 20 -7 -3 -26 2 -42 11 -16 8 -37 15 -46 15
-9 0 -20 5 -23 10 -3 6 -16 10 -29 10 -13 0 -31 9 -41 20 -10 11 -28 20 -40
20 -12 0 -30 9 -40 20 -10 11 -27 20 -38 20 -10 0 -33 11 -49 25 -16 14 -34
22 -40 19 -5 -3 -22 6 -38 21 -19 18 -34 25 -48 21 -14 -5 -24 1 -36 20 -14
20 -23 24 -42 20 -18 -5 -27 0 -40 20 -13 19 -23 24 -40 20 -18 -5 -31 2 -55
29 -18 19 -41 35 -52 35 -10 0 -37 16 -60 35 -22 19 -50 35 -61 35 -12 0 -34
16 -51 36 -20 23 -41 37 -60 39 -18 2 -44 20 -73 49 -33 34 -48 44 -60 37 -12
-7 -27 4 -65 45 -33 36 -57 54 -73 54 -16 0 -46 23 -96 76 -55 57 -77 74 -92
70 -17 -4 -102 76 -429 402 -276 275 -414 420 -426 447 -10 22 -46 67 -80 100
-33 33 -61 68 -61 78 0 10 -25 43 -55 73 -35 35 -55 63 -55 78 0 14 -15 37
-39 59 -24 22 -41 48 -45 69 -4 21 -17 40 -35 53 -29 19 -51 53 -51 80 0 7
-14 25 -30 38 -16 14 -30 35 -30 45 0 11 -16 39 -35 61 -19 23 -32 47 -29 54
2 7 -4 24 -15 36 -11 13 -23 33 -27 45 -3 11 -12 28 -19 36 -7 8 -15 26 -18
40 -4 14 -15 35 -27 47 -11 12 -20 29 -20 37 0 8 -11 32 -25 52 -14 20 -25 45
-25 54 0 10 -6 20 -14 23 -8 3 -17 21 -21 39 -4 18 -15 42 -25 53 -9 11 -23
43 -30 70 -7 28 -17 54 -21 59 -5 6 -9 20 -9 31 0 12 -9 30 -20 40 -11 10 -20
27 -20 38 0 10 -7 33 -15 50 -20 44 -146 416 -152 450 -3 15 -9 30 -14 33 -5
3 -9 24 -9 48 0 23 -4 46 -8 52 -16 17 -40 99 -40 129 1 17 -9 55 -20 85 -12
30 -21 67 -20 81 1 15 -4 34 -11 43 -9 11 -12 33 -9 66 3 33 1 56 -8 68 -7 9
-14 36 -14 58 0 23 -7 58 -15 77 -9 23 -13 54 -10 86 3 27 0 62 -5 77 -6 15
-11 71 -11 123 -1 53 -5 101 -10 107 -12 14 -12 773 -1 805 5 13 7 63 4 111
-3 63 -1 92 8 103 8 10 12 43 11 95 -1 59 2 86 15 105 9 14 14 34 10 48 -3 12
1 35 9 51 8 16 15 55 15 87 0 32 5 61 11 65 6 3 9 20 6 38 -3 19 4 53 19 90
13 33 24 76 24 96 0 20 4 40 8 46 5 5 14 36 21 69 7 33 35 128 62 210 27 83
56 174 64 203 9 30 24 75 34 100 10 26 25 67 32 91 7 24 21 54 31 66 10 13 18
30 18 38 0 9 9 36 20 62 11 26 20 55 20 66 0 10 11 29 25 41 16 14 23 28 20
39 -4 11 2 26 14 38 11 11 24 33 27 48 4 16 15 39 26 52 10 13 18 29 18 36 0
6 9 22 20 35 11 13 20 33 20 46 0 13 9 28 20 34 12 6 20 21 20 36 0 15 11 39
25 56 14 16 25 36 25 45 0 8 13 31 30 50 16 18 30 42 30 52 0 10 14 32 30 49
17 18 30 40 30 51 0 10 18 37 40 59 22 22 40 48 40 59 0 10 20 39 45 63 29 28
45 53 45 69 0 16 14 36 41 59 23 20 49 54 59 77 10 23 48 71 84 106 41 41 66
73 66 87 0 21 40 62 682 696 87 86 145 136 158 136 12 0 49 28 90 69 41 42 81
72 98 76 18 3 48 26 75 56 28 31 50 47 59 44 9 -4 35 13 65 40 28 25 58 45 67
45 9 0 36 18 61 41 38 35 55 45 87 48 4 1 21 15 38 31 17 17 41 30 53 30 13 0
36 14 52 30 16 17 38 30 50 30 12 0 30 9 40 20 10 11 28 20 40 20 12 0 32 11
44 24 15 16 29 22 43 18 13 -3 28 4 44 21 15 16 30 24 40 20 10 -4 25 4 40 21
14 14 34 26 45 26 12 0 32 9 46 20 14 11 34 20 43 20 10 0 23 6 29 14 7 8 38
22 69 31 31 9 65 21 74 26 10 5 26 9 36 9 11 0 27 9 37 20 10 11 28 20 40 20
12 0 25 3 29 7 11 11 99 43 119 43 9 0 17 5 17 11 0 7 10 9 25 5 14 -4 25 -2
25 4 0 5 10 10 23 10 12 0 47 9 77 21 30 11 75 27 100 35 25 8 53 19 62 24 10
6 27 10 37 10 11 0 23 5 27 11 4 7 22 9 45 6 24 -3 45 0 56 9 10 7 25 14 34
14 9 0 30 7 48 16 23 12 35 13 45 5 10 -8 21 -7 42 4 16 8 37 15 46 15 9 0 20
5 23 10 3 6 26 10 50 10 24 0 46 4 50 9 3 5 33 10 66 10 33 0 67 6 76 12 8 7
30 12 49 11 19 -2 44 3 56 9 12 6 56 11 101 10 45 -1 85 3 92 9 15 12 190 18
201 7 4 -4 14 -1 23 7 22 20 53 21 421 18 179 -1 336 -2 349 -2z"/>
<path d="M5841 11139 c-9 -4 -65 -9 -124 -13 -59 -3 -111 -7 -115 -9 -4 -3
-40 -8 -81 -11 -41 -4 -78 -9 -84 -13 -5 -3 -34 -7 -65 -9 -30 -2 -68 -8 -84
-15 -15 -6 -34 -9 -42 -6 -8 3 -43 -3 -78 -14 -34 -10 -77 -19 -95 -19 -18 0
-42 -4 -55 -9 -13 -5 -50 -14 -83 -21 -33 -6 -105 -24 -160 -40 -327 -96 -298
-87 -525 -174 -406 -157 -752 -339 -1093 -573 -93 -64 -236 -168 -287 -210 -8
-6 -42 -33 -75 -59 -153 -122 -393 -349 -570 -539 -79 -84 -284 -332 -328
-395 -10 -14 -31 -43 -48 -65 -16 -22 -46 -65 -67 -95 -20 -30 -39 -57 -42
-60 -9 -8 -116 -176 -155 -242 -177 -303 -274 -501 -377 -768 -71 -183 -134
-371 -177 -530 -17 -63 -35 -128 -40 -145 -5 -16 -15 -61 -21 -100 -7 -38 -17
-83 -23 -100 -5 -16 -13 -55 -18 -85 -4 -30 -15 -98 -23 -150 -63 -368 -81
-878 -46 -1265 12 -133 38 -341 51 -410 6 -27 14 -75 19 -105 5 -30 16 -86 25
-125 8 -38 20 -90 25 -115 17 -81 36 -154 59 -230 50 -163 114 -357 131 -400
11 -25 44 -108 74 -185 51 -130 184 -408 256 -535 112 -196 278 -458 317 -498
7 -8 18 -22 24 -33 18 -34 139 -191 244 -318 75 -90 321 -355 397 -427 161
-153 449 -393 592 -492 172 -119 327 -221 346 -227 11 -3 20 -11 20 -16 0 -5
4 -9 8 -9 5 0 63 -31 130 -70 171 -97 330 -176 547 -269 11 -5 41 -18 66 -30
26 -11 60 -23 75 -27 16 -4 63 -21 104 -39 41 -17 98 -37 125 -45 28 -7 56
-18 63 -23 7 -5 15 -7 18 -4 3 3 22 -2 42 -10 20 -9 75 -27 122 -40 47 -13 94
-26 105 -29 11 -4 29 -7 41 -8 11 -1 24 -5 30 -7 23 -13 172 -46 354 -79 102
-19 385 -58 391 -54 3 2 33 -1 65 -6 188 -31 920 -30 1001 1 15 5 31 5 41 0 9
-5 26 -5 41 0 14 5 49 11 76 14 117 11 207 24 240 35 19 6 38 9 43 6 8 -5 38
2 120 25 20 5 44 10 52 10 26 0 201 40 285 64 44 13 114 34 155 46 105 30 221
68 245 78 11 5 54 21 95 36 41 15 99 38 128 51 29 13 59 24 67 24 7 0 16 4 19
9 3 5 18 12 33 15 28 8 358 169 478 234 132 72 338 203 483 307 46 33 100 71
121 85 21 14 60 44 87 67 27 22 94 78 149 124 249 207 526 490 737 754 96 121
324 441 359 505 11 19 25 44 32 55 77 123 137 233 240 442 62 125 93 195 157
358 39 99 72 192 91 250 11 39 28 88 36 110 16 41 40 128 69 245 9 36 20 74
24 85 5 11 11 38 15 60 4 22 10 58 15 80 29 142 41 214 55 320 9 66 20 143 25
170 27 146 42 612 28 855 -13 239 -28 374 -63 590 -30 183 -32 194 -43 240 -6
25 -23 97 -38 160 -15 63 -36 144 -46 180 -53 177 -103 332 -128 395 -16 39
-45 113 -65 165 -52 135 -69 174 -164 364 -198 398 -454 782 -755 1131 -139
161 -484 498 -625 611 -13 10 -38 31 -55 45 -60 50 -237 184 -276 209 -21 14
-85 57 -142 96 -204 139 -491 299 -733 409 -33 15 -85 38 -115 52 -86 39 -115
51 -220 88 -41 15 -91 33 -110 40 -19 8 -46 17 -60 21 -14 3 -38 12 -55 19
-16 7 -66 22 -110 35 -44 12 -116 32 -160 45 -173 50 -193 55 -208 49 -8 -3
-18 -1 -21 5 -4 5 -28 13 -54 17 -26 3 -51 9 -57 13 -5 3 -21 7 -35 8 -14 1
-50 7 -80 13 -99 19 -249 40 -390 55 -19 2 -57 7 -85 10 -152 17 -794 28 -834
14z m139 -361 c16 -10 24 -10 41 1 18 11 26 11 46 0 20 -11 28 -11 45 0 17 11
25 11 45 0 20 -11 28 -11 45 0 17 11 25 11 45 0 20 -11 28 -11 45 0 17 10 25
10 44 0 19 -10 29 -10 48 0 19 11 27 10 45 0 17 -12 25 -12 42 0 18 10 26 11
45 0 19 -10 29 -10 48 0 20 11 28 10 50 -4 14 -10 26 -14 26 -10 0 4 7 2 15
-5 12 -10 21 -10 45 0 24 10 33 10 45 0 13 -11 20 -10 41 1 23 12 27 11 36 -4
6 -12 16 -16 29 -12 11 4 26 2 33 -4 9 -7 21 -7 43 1 26 10 36 8 67 -10 30
-18 41 -20 58 -11 17 9 24 8 34 -6 10 -13 17 -14 32 -6 15 8 23 7 32 -4 9 -11
17 -12 37 -2 21 9 26 8 34 -6 8 -13 14 -15 29 -7 14 8 28 5 55 -10 20 -11 44
-20 54 -20 10 0 22 -7 25 -16 6 -15 9 -15 33 1 25 17 27 17 39 0 8 -11 20 -15
32 -11 13 4 22 1 25 -8 3 -8 16 -15 29 -15 13 0 33 -1 45 -1 12 0 27 -8 32
-18 8 -14 12 -15 22 -4 17 16 29 15 29 -3 0 -11 7 -14 24 -9 16 4 25 1 29 -10
4 -9 13 -13 22 -10 8 4 22 1 30 -6 8 -7 21 -10 29 -7 8 3 20 -1 27 -9 6 -8 17
-13 23 -12 10 2 64 -19 109 -43 10 -5 22 -7 26 -4 5 2 14 -2 21 -10 8 -9 21
-13 31 -10 12 4 21 1 25 -9 5 -12 10 -13 26 -5 21 11 24 9 48 -32 6 -11 18
-15 35 -12 16 4 25 1 25 -7 0 -8 8 -10 24 -6 16 4 26 1 30 -10 4 -11 10 -12
24 -5 14 8 22 4 37 -20 14 -21 26 -28 40 -25 13 3 28 -4 43 -19 14 -14 29 -22
39 -18 9 4 19 -1 25 -10 5 -10 17 -17 27 -17 10 0 30 -9 44 -20 14 -11 32 -18
40 -14 9 3 23 -6 35 -21 15 -19 27 -25 40 -21 14 5 24 -1 36 -20 13 -19 23
-24 40 -20 17 4 28 -2 45 -24 12 -17 31 -30 42 -30 11 0 34 -14 51 -31 21 -21
38 -29 52 -26 16 4 29 -4 51 -34 21 -27 36 -37 49 -34 13 2 33 -11 62 -41 24
-24 51 -44 62 -44 10 0 38 -20 62 -45 24 -25 53 -45 65 -45 12 0 49 -28 90
-70 47 -47 75 -68 86 -65 11 4 38 -17 83 -64 37 -38 200 -201 362 -362 195
-195 294 -300 294 -314 0 -12 27 -47 65 -85 36 -35 65 -73 65 -83 0 -11 25
-46 55 -79 30 -32 55 -66 55 -75 0 -9 10 -25 23 -37 12 -12 31 -40 42 -61 11
-22 30 -48 43 -58 12 -10 22 -28 22 -39 0 -11 14 -36 30 -55 17 -18 30 -39 30
-45 0 -5 15 -31 34 -57 18 -25 37 -56 40 -68 4 -13 12 -23 17 -23 5 0 9 -8 9
-19 0 -20 43 -106 66 -132 8 -8 14 -25 14 -38 0 -12 7 -24 15 -27 9 -4 15 -19
15 -35 0 -16 4 -29 8 -29 5 0 19 -20 31 -45 12 -24 26 -47 32 -50 5 -4 9 -17
9 -30 0 -13 5 -27 10 -30 6 -3 10 -17 10 -31 0 -27 24 -79 46 -102 8 -7 14
-26 14 -42 0 -16 5 -32 10 -35 6 -3 10 -18 10 -33 0 -15 7 -36 15 -46 8 -11
15 -30 15 -42 0 -13 4 -25 9 -28 5 -4 12 -24 16 -46 4 -22 11 -42 16 -46 5 -3
9 -18 9 -33 0 -16 7 -34 15 -41 8 -7 15 -24 15 -39 0 -15 5 -32 11 -38 6 -6
11 -34 13 -63 1 -31 7 -55 14 -58 7 -2 12 -17 12 -32 0 -16 4 -31 9 -34 4 -3
11 -31 15 -61 3 -31 13 -67 22 -81 11 -15 14 -33 10 -50 -5 -17 -2 -32 7 -43
9 -10 17 -51 21 -109 3 -51 10 -102 16 -112 5 -10 10 -52 10 -94 0 -41 5 -78
10 -81 6 -3 10 -49 10 -104 0 -54 5 -102 10 -107 14 -14 14 -694 0 -708 -6 -6
-10 -51 -10 -101 0 -50 -4 -95 -9 -100 -5 -6 -12 -41 -14 -80 -12 -158 -30
-292 -43 -318 -9 -15 -12 -32 -9 -37 4 -6 -1 -25 -10 -43 -9 -17 -18 -59 -20
-91 -3 -33 -9 -64 -15 -70 -5 -5 -10 -17 -10 -26 0 -9 -6 -22 -12 -29 -7 -6
-14 -26 -15 -44 -3 -53 -24 -140 -39 -161 -8 -11 -14 -28 -14 -38 0 -10 -4
-18 -9 -18 -4 0 -11 -23 -14 -52 -4 -28 -11 -56 -17 -62 -5 -5 -10 -18 -10
-27 0 -9 -6 -22 -14 -28 -8 -7 -19 -42 -26 -79 -8 -47 -19 -75 -36 -93 -14
-15 -25 -33 -23 -40 3 -21 -12 -79 -22 -85 -5 -3 -9 -13 -9 -23 0 -10 -9 -26
-21 -37 -14 -12 -18 -25 -14 -41 4 -17 -1 -27 -20 -39 -14 -9 -25 -24 -25 -33
0 -10 -7 -26 -15 -37 -8 -10 -15 -29 -15 -40 0 -12 -11 -29 -25 -38 -17 -11
-25 -26 -25 -45 0 -16 -7 -34 -15 -41 -8 -7 -15 -20 -15 -30 0 -9 -8 -24 -19
-34 -11 -10 -16 -25 -13 -41 3 -20 -3 -28 -32 -46 -28 -16 -36 -27 -36 -49 0
-20 -9 -35 -30 -50 -21 -15 -30 -30 -30 -50 0 -21 -9 -36 -36 -56 -25 -20 -34
-33 -30 -47 3 -14 -7 -30 -35 -55 -26 -24 -37 -41 -34 -53 4 -11 -12 -33 -50
-70 -30 -29 -55 -60 -55 -70 0 -10 -29 -48 -65 -86 -36 -37 -65 -76 -65 -85 0
-26 -725 -747 -742 -737 -10 5 -33 -13 -77 -61 -42 -46 -72 -71 -93 -76 -18
-3 -47 -23 -66 -45 -19 -21 -47 -41 -62 -44 -14 -3 -44 -24 -64 -45 -21 -22
-46 -40 -56 -40 -20 0 -74 -46 -82 -70 -4 -13 -7 -13 -21 -1 -15 12 -21 9 -46
-18 -16 -17 -37 -31 -46 -31 -10 0 -33 -16 -52 -36 -27 -29 -36 -34 -48 -24
-16 13 -35 6 -35 -14 0 -8 -7 -19 -15 -26 -12 -10 -18 -10 -30 0 -9 7 -16 11
-18 9 -1 -2 -7 -13 -13 -24 -6 -11 -20 -21 -32 -23 -11 -2 -47 -16 -78 -33
-32 -16 -66 -29 -75 -29 -10 0 -26 -11 -37 -24 -13 -17 -25 -23 -40 -19 -16 4
-26 -2 -40 -26 -17 -29 -19 -29 -35 -13 -17 16 -18 16 -23 -6 -7 -25 -15 -27
-33 -9 -10 10 -15 8 -26 -7 -8 -10 -19 -15 -25 -11 -13 8 -50 -22 -50 -42 0
-16 -12 -17 -29 -1 -10 11 -15 10 -25 -4 -8 -11 -20 -15 -34 -11 -13 3 -22 1
-22 -6 0 -6 -9 -11 -20 -11 -11 0 -28 -4 -38 -9 -9 -5 -48 -21 -87 -36 -38
-15 -78 -31 -88 -36 -10 -5 -22 -7 -28 -3 -6 3 -16 -2 -24 -12 -11 -15 -16
-17 -26 -6 -18 17 -26 15 -32 -10 -5 -18 -9 -19 -21 -9 -18 15 -36 7 -36 -16
0 -12 -3 -13 -14 -4 -14 12 -73 5 -82 -10 -3 -5 -12 -9 -21 -9 -9 0 -25 -7
-35 -17 -17 -15 -19 -15 -36 0 -15 14 -21 14 -38 4 -10 -7 -43 -21 -72 -31
-43 -15 -55 -16 -68 -5 -13 10 -16 9 -21 -9 -6 -24 -23 -28 -40 -11 -8 8 -17
8 -30 0 -11 -5 -29 -7 -41 -4 -16 4 -22 1 -22 -11 0 -19 -13 -20 -38 -5 -14 9
-28 7 -63 -10 -36 -18 -48 -20 -66 -10 -12 7 -29 8 -40 4 -10 -5 -24 -7 -31
-6 -8 1 -20 -6 -27 -16 -12 -16 -16 -16 -40 -3 -22 12 -30 12 -47 1 -17 -10
-25 -10 -44 0 -19 10 -31 9 -71 -9 -40 -17 -51 -18 -63 -8 -12 11 -21 11 -45
1 -20 -9 -34 -10 -46 -2 -11 7 -26 7 -47 -1 -24 -8 -33 -8 -42 3 -10 12 -17
12 -45 0 -29 -11 -35 -11 -45 1 -9 10 -17 11 -32 3 -11 -6 -35 -8 -54 -4 -19
3 -43 1 -55 -5 -16 -9 -24 -8 -38 4 -10 9 -21 13 -25 9 -15 -15 -150 -12 -186
4 -27 13 -40 14 -64 5 -24 -9 -33 -9 -46 3 -14 13 -19 13 -39 -1 -20 -15 -24
-15 -40 0 -10 9 -25 14 -35 10 -9 -3 -16 -1 -16 5 0 14 -37 15 -45 1 -8 -13
-45 -13 -45 0 0 6 -8 10 -18 10 -10 0 -23 5 -30 12 -9 9 -18 8 -38 -2 -23 -13
-27 -12 -36 3 -6 12 -16 16 -29 12 -11 -4 -27 -1 -35 6 -13 10 -20 10 -37 0
-17 -11 -22 -11 -31 0 -6 8 -28 14 -48 15 -21 0 -46 7 -55 16 -10 8 -24 13
-32 10 -8 -2 -20 3 -27 13 -13 17 -15 17 -39 1 -25 -17 -27 -17 -39 0 -8 10
-20 15 -30 11 -9 -4 -16 -2 -16 2 0 14 -60 31 -85 25 -15 -4 -24 0 -28 11 -5
12 -11 14 -26 6 -15 -8 -20 -7 -25 5 -4 11 -14 14 -27 11 -12 -3 -22 0 -26 9
-3 9 -13 12 -28 8 -15 -4 -24 0 -29 11 -3 9 -11 13 -17 9 -6 -3 -21 -2 -32 4
-12 5 -42 17 -67 27 -25 10 -55 22 -67 27 -11 6 -26 7 -31 4 -6 -4 -15 1 -20
10 -6 11 -16 15 -27 10 -11 -4 -22 0 -30 11 -10 13 -16 15 -27 6 -11 -9 -18
-6 -33 18 -15 22 -26 28 -41 24 -14 -3 -24 1 -28 11 -4 12 -10 13 -26 4 -16
-9 -22 -8 -27 5 -4 11 -13 15 -27 11 -16 -4 -26 2 -41 24 -15 22 -22 26 -33
18 -10 -8 -20 -4 -42 17 -16 15 -35 25 -43 22 -8 -3 -21 3 -30 14 -9 10 -25
19 -36 19 -10 0 -24 7 -31 15 -7 8 -23 15 -35 15 -13 0 -33 11 -44 26 -17 21
-24 24 -35 15 -12 -10 -19 -6 -37 18 -16 22 -26 28 -37 22 -11 -6 -25 1 -47
25 -18 19 -41 34 -52 34 -11 0 -32 13 -48 30 -19 20 -33 27 -43 21 -10 -6 -25
3 -49 30 -20 22 -45 39 -56 39 -12 0 -39 18 -62 40 -22 22 -50 41 -62 43 -12
2 -39 22 -60 44 -21 23 -50 45 -64 48 -14 4 -57 37 -94 75 -47 47 -72 66 -80
60 -16 -13 -739 711 -743 743 -2 13 -32 52 -67 87 -37 36 -65 73 -65 84 0 11
-20 39 -46 63 -25 24 -51 58 -59 76 -8 19 -21 40 -30 47 -9 7 -24 32 -35 54
-10 23 -30 52 -44 65 -14 14 -26 31 -26 39 0 8 -11 29 -24 46 -12 17 -31 47
-41 66 -10 19 -21 37 -25 40 -12 8 -70 118 -70 132 0 8 -5 19 -12 26 -6 6 -13
18 -14 27 -1 8 -11 27 -22 43 -12 15 -24 40 -27 55 -4 15 -11 27 -16 27 -5 0
-9 10 -9 22 0 12 -6 29 -14 37 -22 25 -66 112 -66 131 0 10 -7 23 -15 30 -8 7
-15 25 -15 40 0 15 -11 44 -25 64 -14 20 -25 47 -25 59 0 12 -7 31 -15 41 -8
11 -15 31 -15 45 0 14 -7 35 -15 45 -8 10 -12 23 -9 28 3 5 -1 20 -10 33 -9
13 -16 35 -16 48 0 13 -7 32 -15 43 -8 10 -15 31 -15 47 0 15 -4 27 -10 27 -5
0 -10 13 -10 28 0 16 -7 37 -15 48 -8 10 -15 39 -15 64 0 25 -7 54 -15 64 -8
11 -15 30 -15 42 0 13 -4 26 -10 29 -5 3 -10 27 -10 53 0 26 -7 56 -15 66 -8
11 -15 38 -15 61 0 23 -6 47 -12 54 -7 6 -13 38 -14 69 -1 31 -6 77 -12 102
-6 25 -11 79 -12 121 0 54 -4 80 -14 88 -19 16 -26 133 -32 570 -3 228 -1 348
6 355 5 5 10 51 10 102 0 69 4 95 15 104 10 8 15 32 16 74 0 33 5 93 10 131 6
39 11 94 13 122 1 29 7 58 14 65 7 7 12 23 12 38 0 14 7 43 15 65 8 22 14 61
15 87 0 26 5 50 10 53 6 3 10 14 10 24 0 10 6 24 14 30 7 6 16 41 20 77 4 36
16 87 27 112 36 81 38 86 44 130 4 23 18 63 31 88 14 26 27 66 31 90 3 25 10
47 14 50 5 3 9 13 9 23 0 10 8 26 19 35 11 10 21 37 25 65 4 27 13 54 21 61 8
7 15 20 15 30 0 10 7 23 15 30 8 7 15 25 15 40 0 19 8 33 25 44 15 10 25 26
25 41 0 13 5 27 10 30 6 3 10 15 10 26 0 11 11 30 25 43 14 13 25 34 25 48 0
14 7 31 15 38 8 7 15 18 15 25 0 7 9 24 20 38 11 14 20 36 20 49 0 16 10 30
30 41 23 14 30 25 30 50 0 26 7 37 30 50 22 14 30 26 30 47 0 21 9 36 36 56
27 21 34 33 30 49 -4 17 4 29 35 54 25 21 38 39 35 48 -4 8 16 36 49 71 30 31
55 65 55 75 0 9 27 45 61 80 33 34 67 76 74 93 7 17 171 189 364 382 193 193
351 356 351 362 0 5 5 10 10 10 6 0 10 -4 10 -10 0 -23 25 -7 83 54 34 36 74
68 88 71 15 4 46 26 70 51 24 24 52 44 62 44 10 0 37 18 59 40 23 22 47 40 55
40 23 0 63 31 79 62 14 28 17 29 33 14 16 -15 19 -14 39 13 12 16 35 32 52 36
16 4 41 21 55 38 21 28 27 30 44 20 18 -11 22 -9 33 15 10 19 21 27 37 26 13
0 32 7 43 18 10 10 26 18 37 18 10 0 24 6 30 14 7 8 24 17 39 21 15 4 34 13
42 20 8 7 26 15 39 17 13 1 29 12 35 23 6 11 12 22 13 24 2 2 10 -2 19 -10 14
-11 19 -10 34 9 10 12 20 28 23 35 4 9 7 9 18 0 19 -18 26 -16 32 9 6 21 7 21
25 5 21 -19 32 -13 32 15 0 16 3 17 21 6 18 -12 23 -10 44 16 20 26 26 28 40
16 14 -11 17 -10 22 8 6 25 14 27 32 10 10 -11 15 -9 26 6 8 10 19 15 25 11 6
-4 16 -2 23 3 7 5 46 21 87 36 41 15 83 31 92 37 10 5 26 9 37 9 11 0 21 6 24
13 3 9 9 9 25 0 18 -11 21 -9 27 14 6 25 6 25 26 7 19 -17 20 -17 26 4 6 24
14 27 29 12 11 -11 101 17 129 40 13 11 21 11 36 2 23 -15 49 -16 49 -2 0 6 8
10 18 10 10 0 36 9 58 19 24 12 43 16 48 10 15 -14 23 -11 29 13 6 20 7 20 30
6 16 -11 28 -13 41 -6 9 5 24 7 33 4 9 -4 21 1 29 11 11 15 16 16 33 5 18 -10
27 -9 58 8 43 23 64 25 81 8 9 -9 17 -9 36 1 13 8 29 10 35 7 6 -4 14 0 17 8
7 17 44 22 44 6 0 -5 9 -10 19 -10 11 0 23 5 26 10 3 6 15 10 26 10 10 0 19
-4 19 -10 0 -15 31 -11 70 9 44 23 46 24 70 9z"/>
<path d="M6041 10258 c-13 -5 -32 -6 -41 -3 -28 9 -319 -23 -515 -56 -194 -33
-233 -41 -455 -100 -119 -31 -303 -93 -475 -161 -113 -44 -106 -40 -237 -102
-54 -25 -100 -46 -103 -46 -3 0 -22 -11 -43 -23 -20 -13 -75 -44 -122 -68 -90
-48 -107 -57 -212 -125 -37 -24 -70 -44 -72 -44 -20 0 -427 -303 -495 -368
-10 -9 -55 -51 -101 -92 -137 -123 -249 -239 -425 -439 -91 -102 -231 -290
-319 -426 -22 -33 -58 -89 -81 -125 -24 -36 -56 -90 -72 -120 -16 -30 -45 -82
-63 -115 -41 -74 -130 -252 -130 -259 0 -3 -16 -38 -35 -77 -19 -40 -35 -80
-35 -89 0 -9 -4 -20 -9 -26 -4 -5 -21 -43 -35 -84 -15 -41 -31 -84 -36 -95
-28 -68 -60 -164 -60 -182 0 -12 -4 -24 -9 -27 -5 -3 -17 -41 -26 -83 -9 -43
-22 -96 -30 -118 -16 -49 -50 -206 -65 -300 -7 -38 -16 -90 -22 -115 -10 -46
-46 -389 -50 -470 -8 -181 0 -508 16 -665 23 -238 104 -696 127 -719 5 -6 9
-19 9 -30 0 -43 153 -505 180 -541 4 -5 10 -22 14 -36 10 -43 143 -322 206
-434 10 -16 26 -46 36 -65 11 -19 21 -37 24 -40 3 -3 14 -21 24 -40 22 -39
219 -343 236 -363 6 -6 40 -50 76 -97 201 -262 429 -500 679 -712 119 -101
272 -218 284 -218 6 0 11 -4 11 -8 0 -5 21 -22 48 -39 204 -132 302 -193 311
-193 5 0 11 -3 13 -7 9 -22 389 -210 550 -274 176 -68 271 -103 338 -124 30
-10 63 -21 72 -26 10 -5 24 -9 32 -9 7 0 38 -7 67 -16 30 -8 70 -19 89 -24 19
-5 63 -16 98 -25 70 -18 103 -25 272 -54 164 -28 326 -47 495 -57 127 -8 435
-9 530 -2 111 9 202 17 255 24 25 3 77 9 115 14 146 17 455 78 510 99 11 5 58
18 105 30 128 33 136 36 260 81 244 88 429 168 605 261 50 26 110 58 135 71
24 13 50 28 56 34 7 6 26 17 43 24 17 7 31 16 31 21 0 5 5 9 10 9 19 0 316
202 414 281 6 5 38 30 71 56 33 26 62 50 65 53 3 3 57 51 120 107 212 187 429
422 608 658 94 125 282 404 282 419 0 5 8 20 19 34 36 52 231 429 231 447 0 4
12 32 26 63 30 67 70 173 123 327 34 99 47 141 83 270 6 22 17 59 24 83 8 23
14 52 14 63 0 12 7 44 15 72 37 131 81 449 96 692 28 460 -1 809 -112 1340
-42 200 -185 618 -284 830 -59 127 -91 190 -193 375 -13 25 -31 57 -38 71 -38
71 -242 368 -333 484 -139 177 -201 246 -370 415 -183 183 -212 209 -396 356
-135 108 -464 337 -504 352 -9 3 -27 13 -41 22 -25 17 -126 72 -249 137 -57
29 -255 119 -318 144 -13 5 -33 13 -45 18 -13 5 -45 17 -73 27 -27 9 -54 21
-59 26 -6 4 -18 8 -28 8 -10 0 -26 4 -36 9 -48 25 -62 29 -287 92 -124 35
-276 69 -425 94 -179 31 -180 31 -260 39 -36 4 -87 9 -115 12 -158 17 -579 25
-614 12z m229 -2707 c116 -32 151 -45 228 -84 100 -49 177 -120 214 -198 47
-99 58 -171 58 -368 l0 -181 -317 2 -318 3 -6 150 c-8 182 -14 204 -61 230
-35 18 -37 18 -74 1 -62 -28 -74 -63 -74 -216 0 -101 3 -132 15 -144 8 -8 15
-21 15 -28 0 -22 124 -128 149 -128 6 0 11 -4 11 -10 0 -5 6 -10 14 -10 8 0
21 -6 28 -14 8 -7 30 -21 48 -31 19 -10 37 -21 40 -24 3 -4 30 -22 60 -40 105
-64 260 -182 337 -259 74 -73 133 -164 133 -203 0 -9 7 -22 15 -29 8 -7 15
-28 15 -47 0 -19 4 -42 9 -51 31 -57 30 -609 0 -628 -5 -3 -9 -18 -9 -33 0
-15 -7 -36 -15 -47 -8 -10 -15 -27 -15 -36 0 -10 -4 -18 -9 -18 -5 0 -12 -8
-15 -17 -12 -35 -96 -113 -163 -151 -184 -102 -247 -116 -518 -117 -203 0
-305 11 -329 35 -6 6 -19 10 -31 10 -11 0 -29 7 -39 15 -11 8 -28 15 -38 15
-10 0 -18 3 -18 8 0 4 -24 20 -54 35 -93 49 -216 187 -216 243 0 11 -4 24 -9
30 -18 20 -41 147 -41 228 0 47 -4 87 -9 90 -5 4 -10 67 -10 141 -1 119 0 135
16 144 21 10 600 15 627 5 15 -6 17 -27 15 -209 -2 -239 8 -297 56 -326 58
-36 127 -14 161 50 16 30 19 55 17 185 -2 145 -3 153 -31 208 -23 47 -46 70
-119 128 -50 38 -96 70 -101 70 -6 0 -12 3 -14 8 -1 4 -39 32 -83 62 -44 30
-105 71 -135 92 -30 21 -80 55 -110 75 -29 21 -86 69 -125 108 -56 55 -80 89
-113 157 -23 48 -42 96 -42 105 0 10 -7 36 -15 58 -20 57 -20 443 0 500 8 22
15 52 15 67 0 15 5 30 10 33 6 3 10 13 10 22 0 21 55 109 94 150 33 36 157
123 175 123 6 0 19 4 29 9 51 26 96 41 121 41 16 0 44 7 62 15 27 12 73 14
234 12 119 -2 218 -9 245 -16z m2060 0 c114 -32 151 -45 230 -84 89 -44 183
-126 209 -182 7 -17 18 -38 23 -49 5 -10 12 -34 14 -53 3 -20 9 -43 14 -53 6
-11 10 -106 10 -214 l0 -196 -317 2 -318 3 -1 120 c-1 66 -7 147 -13 180 -11
51 -18 64 -43 78 -38 22 -56 21 -94 -2 -55 -33 -67 -77 -62 -218 3 -74 10
-129 16 -135 7 -7 12 -18 12 -26 0 -21 63 -77 139 -125 36 -23 68 -44 71 -48
3 -3 23 -16 45 -27 45 -24 215 -139 321 -219 126 -93 197 -182 254 -318 28
-65 59 -288 60 -427 0 -114 -18 -299 -31 -312 -5 -6 -9 -22 -9 -36 0 -14 -7
-35 -15 -46 -8 -10 -15 -27 -15 -36 0 -10 -4 -18 -9 -18 -5 0 -13 -9 -16 -21
-11 -32 -102 -115 -161 -146 -30 -15 -54 -31 -54 -35 0 -5 -7 -8 -16 -8 -9 0
-28 -6 -42 -14 -104 -53 -205 -68 -425 -63 -189 4 -290 16 -311 37 -5 5 -17
10 -25 10 -35 0 -188 88 -245 140 -64 59 -126 147 -126 179 0 11 -4 23 -10 26
-5 3 -10 20 -10 36 0 17 -5 40 -12 52 -14 25 -25 177 -28 376 -2 112 1 136 13
143 9 4 154 7 324 6 l308 -3 6 -225 c3 -129 10 -240 17 -260 30 -90 150 -91
198 -1 16 30 19 56 18 185 -2 163 -15 214 -65 267 -26 27 -199 158 -238 180
-14 8 -30 17 -35 22 -6 4 -39 27 -74 52 -34 25 -67 45 -72 45 -6 0 -10 5 -10
10 0 6 -6 10 -14 10 -8 0 -16 4 -18 10 -1 5 -22 22 -45 37 -117 79 -192 150
-229 218 -47 88 -72 145 -78 180 -3 17 -10 53 -15 80 -25 128 -1 518 35 570 8
11 14 26 14 33 0 26 92 142 143 179 70 52 85 61 142 83 11 4 37 15 58 24 21 9
51 16 66 16 16 0 44 7 62 15 27 12 73 14 234 12 119 -2 218 -9 245 -16z
m-3916 -37 c14 -6 16 -108 16 -1060 l0 -1054 205 0 205 0 0 -265 0 -265 -555
0 -555 0 0 1318 c0 725 3 1322 7 1325 8 9 656 9 677 1z"/>
</g>
</svg>
